<svg id="Слой_1" xmlns="http://www.w3.org/2000/svg" viewBox="0 0 38 38"><style>.st0{fill:#2caae1}.st1{fill:#fff}</style><path class="st0" d="M38 23.8C38 31.6 31.6 38 23.8 38h-9.6C6.4 38 0 31.6 0 23.8v-9.6C0 6.4 6.4 0 14.2 0h9.6C31.6 0 38 6.4 38 14.2v9.6z"/><path class="st1" d="M26.9 14.1c-.6.3-1.2.4-1.9.5.7-.4 1.2-1 1.4-1.8-.6.4-1.3.6-2.1.8-.6-.6-1.4-1-2.4-1-1.8 0-3.2 1.4-3.2 3.2 0 .3 0 .5.1.7-2.7-.1-5.1-1.4-6.7-3.4-.3.5-.4 1-.4 1.6 0 1.1.6 2.1 1.4 2.7-.5 0-1-.2-1.5-.4 0 1.6 1.1 2.9 2.6 3.2-.3.1-.6.1-.9.1-.2 0-.4 0-.6-.1.4 1.3 1.6 2.2 3 2.2-1.1.9-2.5 1.4-4 1.4h-.8c1.4.9 3.1 1.5 5 1.5 6 0 9.2-4.9 9.2-9.2v-.4c.8-.4 1.4-.9 1.8-1.6z"/></svg>