<svg id="Слой_1" xmlns="http://www.w3.org/2000/svg" viewBox="0 0 89 87"><style>.st0{fill:#1fbba6}.st1{fill:#f1f1f1}</style><path class="st0" d="M85.2 50.6c.4-2.4 3.8-4.6 3.8-7.1s-3.3-4.7-3.8-7.1c-.4-2.5 1.9-5.7 1.1-8-.9-2.3-4.7-3.3-6-5.4-1.3-2.2-.1-6-1.7-7.9-1.6-1.9-5.6-1.5-7.5-3.1-1.9-1.6-2.2-5.5-4.3-6.8-2.1-1.2-5.7.5-8.1-.3-2.3-.8-3.9-4.5-6.4-4.9-2.4-.4-5.2 2.4-7.7 2.4S39.2-.4 36.8 0c-2.5.4-4.1 4.1-6.4 4.9-2.4.9-6-.9-8.1.3-2.2 1.2-2.4 5.2-4.3 6.8-1.9 1.6-5.9 1.2-7.5 3.1-1.7 1.9-.6 5.7-1.8 7.9-1.2 2.1-5.1 3.1-6 5.4-.8 2.3 1.5 5.5 1.1 8C3.3 38.8 0 41 0 43.5s3.3 4.7 3.8 7.1c.4 2.5-1.9 5.7-1.1 8 .9 2.3 4.7 3.3 6 5.4 1.3 2.2.1 6 1.7 7.9 1.6 1.9 5.6 1.5 7.5 3.1 1.9 1.6 2.2 5.5 4.3 6.8 2.1 1.2 5.7-.5 8.1.3 2.3.8 3.9 4.5 6.4 4.9 2.4.4 5.2-2.4 7.7-2.4s5.3 2.9 7.7 2.4c2.5-.4 4.1-4.1 6.4-4.9 2.4-.9 6 .9 8.1-.3 2.2-1.2 2.4-5.2 4.3-6.8 1.9-1.6 5.9-1.2 7.5-3.1 1.6-1.9.5-5.7 1.7-7.9 1.2-2.1 5.1-3.1 6-5.4 1.1-2.3-1.3-5.5-.9-8z"/><path class="st1" d="M67.3 40.7c1.2-2.3 1.4-3.8-.7-6.5-1.2-1.6-2.8-2.2-4.8-2.3-2.6-.1-5.1-.1-7.7-.2h-1.7c-.3 0-.6-.2-.9-.3.2-.4.3-.7.5-1 .6-1 1.2-2.1 1.9-3 1.5-2.1 1.8-4.5 1.4-7-.2-1-.5-2-.8-2.9-.7-1.8-1.8-3.3-3.7-3.9h-1.3c-1.8.5-2.7 1.8-3 3.5-.1.9-.3 1.9-.5 2.9-.5 2.3-1.5 4.3-3.3 5.8-.7.5-1.2 1.2-1.8 1.8-1.2 1.2-2.1 2.7-2.7 4.3-.5 1.5-1.2 3-1.9 4.4-.5 1-1.2 1.7-2.1 2.4-.6-.5-1.3-.8-2.1-.8H25c-1.8 0-3.1 1.4-3.1 3.2v18.1c0 1.8 1.4 3.2 3.2 3.2h7c1 0 1.8-.3 2.4-1 .1-.1.3-.2.4-.2 1.5.2 3 .3 4.5.6 2.1.4 4.3 1 6.4 1.5.9.2 1.9.3 2.8.4h2.5c1.1-.1 2.2-.2 3.2-.4 2.1-.4 4.1-.7 6.1-1.2 1.5-.3 2.9-1.1 3.9-2.3.8-.9 1.2-1.9.8-3.1-.3-.8-.2-1.5.5-2.2.6-.7 1.1-1.5 1.3-2.4.2-1 0-1.9-.4-2.8-.1-.3-.1-.5.1-.7.7-.8 1.3-1.6 1.5-2.6.3-1.2-.1-2.4-.8-3.4-.3-.8-.3-1.3 0-1.9zM32.1 59.1h-7V41h7v18.1zm32.6-13.4c-.4.5-.7 1-1.1 1.4-.6.8-.8 1.6-.3 2.5.6 1.2.5 2.2-.4 3.1-1.3 1.3-1.4 2.7-.9 4.3.2.5 0 .8-.4 1-.7.4-1.5.9-2.3 1.1-2.9.7-5.8 1.2-8.7 1.4-2.1.1-4.2-.3-6.3-.8-1.9-.4-3.7-.9-5.5-1.3-1-.2-2-.3-2.9-.4-.2 0-.3 0-.5-.1V42.3c0-.2.1-.5.3-.6 1.9-1.3 3.3-3 4.2-5.1.5-1.1 1-2.2 1.3-3.4.5-1.4 1.2-2.5 2.2-3.5.5-.5 1-1.1 1.6-1.6 2.3-1.9 3.5-4.4 4.1-7.2.3-1.1.4-2.2.6-3.3 0-.1 0-.3.1-.4.1-.4.3-.5.6-.2.2.2.4.4.5.6 1.3 1.9 1.6 4 1.2 6.3-.1.6-.4 1.1-.7 1.6-.7 1.3-1.5 2.5-2.2 3.7-.4.6-.6 1.3-.8 2-.2.8 0 1.5.6 2.1 1.2 1.3 2.7 1.8 4.5 1.7 1.8-.1 3.7-.1 5.5 0 1.1 0 2.1.2 3.2.2.8 0 1.4.4 1.9 1 .1.2.3.3.4.5.6.7.7 1.5.2 2.3-.3.4-.5.9-.7 1.4-.5.9-.5 1.7.1 2.6.3.4.5.8.7 1.2.3.5.3 1-.1 1.5z"/></svg>