<svg id="Слой_1" xmlns="http://www.w3.org/2000/svg" viewBox="0 0 38 38"><style>.st0{fill:#e7ded1}.st1{fill:#343434}.st2{fill:#363636}.st3{fill:#6a453b}.st4{fill:#4695ff}.st5{fill:#7bd5ab}.st6{fill:#ffd736}.st7{fill:#ff3163}</style><path class="st0" d="M28.2 0H9.8C4.4 0 0 4.4 0 9.8v18.4C0 33.6 4.4 38 9.8 38h18.4c5.4 0 9.8-4.4 9.8-9.8V9.8C38 4.4 33.6 0 28.2 0zM8.7 14H3.4c-.7 0-1.2-.5-1.2-1.2v-.3c0-.7.5-1.2 1.2-1.2h5.3c.7 0 1.2.5 1.2 1.2v.3c0 .6-.5 1.2-1.2 1.2zM19 28.7c-5 0-9.1-4.1-9.1-9.1s4.1-9.1 9.1-9.1 9.1 4.1 9.1 9.1-4.1 9.1-9.1 9.1zM34.2 8.3c0 .9-.7 1.6-1.6 1.6h-3.5c-.9 0-1.6-.7-1.6-1.6V4.8c0-.9.7-1.6 1.6-1.6h3.5c.9 0 1.6.7 1.6 1.6v3.5z"/><circle class="st1" cx="19" cy="19.6" r="6.5"/><path class="st2" d="M19 13.6c3.3 0 6 2.7 6 6s-2.7 6-6 6-6-2.7-6-6 2.7-6 6-6m0-1c-3.9 0-7 3.1-7 7s3.1 7 7 7 7-3.1 7-7-3.1-7-7-7z"/><path class="st1" d="M8.9 13.4H3.2c-.3 0-.5-.2-.5-.5v-.5c0-.3.2-.5.5-.5h5.7c.3 0 .5.2.5.5v.5c0 .2-.2.5-.5.5z"/><path class="st3" d="M28.2 0H9.8C4.4 0 0 4.4 0 9.8V12h2.3c.2-.4.6-.8 1.1-.8h5.3c.5 0 .9.3 1.1.8h2.4c1.8-1.6 4.1-2.5 6.7-2.5 2.6 0 4.9 1 6.7 2.5H38V9.8C38 4.4 33.6 0 28.2 0zm6 8.3c0 .9-.7 1.6-1.6 1.6h-3.5c-.9 0-1.6-.7-1.6-1.6V4.8c0-.9.7-1.6 1.6-1.6h3.5c.9 0 1.6.7 1.6 1.6v3.5z"/><path class="st4" d="M8.2.1V11h2V0h-.4c-.5 0-1.1.1-1.6.1z"/><path class="st5" d="M6.2 11h2V.1c-.7.1-1.4.3-2 .5V11z"/><path class="st6" d="M4.2 11h2V.7c-.7.3-1.4.6-2 1V11z"/><path class="st7" d="M2.2 3.6V11h2V1.7c-.7.6-1.4 1.2-2 1.9z"/></svg>